<?xml version="1.0" encoding="UTF-8"?>
<svg id="Layer_1" data-name="Layer 1" xmlns="http://www.w3.org/2000/svg" viewBox="0 0 1109.17 1143.92">
  <defs>
    <style>
      .cls-1 {
        fill: #fbaf40;
        stroke-width: 0px;
      }
    </style>
  </defs>
  <path class="cls-1" d="M1108,271.94c1.72,1.43,1.03,3.4,1.03,5.14.03,246.29.03,492.58.02,738.87,0,1.16-.08,2.33-.12,3.49-89.68,40.52-179.36,81.03-269.03,121.57-8.43,3.81-8.4,3.87-8.4-5.34v-489.14c-6.53,2.88-12.41,5.44-18.27,8.07-85.24,38.23-170.49,76.46-255.69,114.77-2.21,1-3.81.85-5.95-.11-89.77-40.33-179.58-80.54-269.32-120.93-6.11-2.75-4.41,1.42-4.41,4.11-.03,161.82-.03,323.64-.03,485.47v6.02c-2.79.12-4.72-1.32-6.77-2.25-88.48-39.95-176.93-79.96-265.46-119.81C1.56,1020.04,0,1018.15,0,1013.51c.14-245.4.12-490.79.12-736.19,0-5.91,0-5.9,5.34-3.5,118.14,53.01,236.29,106.02,354.43,159.03,63.55,28.52,127.1,57.03,190.6,85.63,2.79,1.26,5.04,1.51,7.94.2,113.86-51.19,227.76-102.3,341.65-153.42,69.3-31.11,138.61-62.22,207.91-93.33Z"/>
  <path class="cls-1" d="M1034.87,217.08c-10.5,4.79-20.14,9.19-29.79,13.58-78.85,35.81-157.72,71.56-236.5,107.53-4.88,2.23-8.71,2.04-13.45-.1-65.64-29.52-131.36-58.85-197.02-88.32-3-1.35-5.39-1.39-8.43-.03-66.72,29.94-133.51,59.76-200.24,89.68-2.47,1.11-4.42,1.26-6.97.1-88.82-40.39-177.68-80.7-266.52-121.03-.74-.33-1.43-.75-2.85-1.5,2.68-1.26,4.79-2.28,6.93-3.24,115.08-52.1,230.17-104.2,345.25-156.29,41.64-18.85,83.3-37.66,124.91-56.59,2.7-1.23,4.85-1.13,7.49.07,122.33,55.43,244.69,110.81,367.05,166.19,34.68,15.69,69.36,31.37,104.04,47.07,1.75.79,3.47,1.64,6.1,2.88Z"/>
</svg>