<?xml version="1.0" encoding="UTF-8"?>
<svg xmlns="http://www.w3.org/2000/svg" width="2048" height="608" viewBox="0 0 2048 608" role="img" aria-labelledby="title desc">
  <title id="title">University Blockchain Conference logo</title>
  <desc id="desc">A fully vectorized orange and white conference logo with outlined letterforms.</desc>
  <g id="white-elements" shape-rendering="geometricPrecision">
    <path d="M0 0 C9.543 7.192 17.938 15.693 26.375 24.125 C27.399 25.137 28.423 26.149 29.479 27.191 C45.035 42.718 56.671 57.599 57.312 80.25 C55.953 96.759 46.777 109.027 35.312 120.25 C33.724 121.838 32.136 123.426 30.5 125.062 C29.118 126.444 27.736 127.826 26.312 129.25 C25.24 130.488 24.167 131.725 23.062 133 C19.759 136.745 16.336 140.157 12.75 143.625 C0.508 155.825 -5.531 169.868 -5.688 187.25 C-3.191 211.715 12.318 225.59 29.045 241.777 C42.834 255.31 54.478 268.407 57.312 288.25 C57.312 309.989 47.278 324.006 32.73 338.923 C27.736 343.869 22.704 348.774 17.65 353.658 C6.35 364.757 -4.165 377.328 -4.891 393.883 C-4.898 394.789 -4.898 394.789 -4.938 399.375 C-4.963 401.172 -4.989 402.969 -5.016 404.82 C-3.631 427.739 13.724 441.849 28.875 457.062 C29.5 457.698 29.5 457.698 32.662 460.912 C46.239 474.546 59.497 484.258 79.375 484.562 C101.971 484.425 116.526 471.255 131.637 455.98 C135.346 452.197 139.038 448.398 142.721 444.588 C155.217 431.865 168.055 422.75 186.438 422 C202.067 422.568 214.229 428.601 225.328 439.371 C227.468 441.435 229.684 443.421 231.945 445.352 C238.633 451.322 244.777 457.852 250.941 464.357 C262.46 476.15 274.851 482.898 291.312 485.25 C317.851 485.25 333.887 469.801 351.625 452.188 C352.651 451.171 353.678 450.154 354.735 449.106 C369.278 434.5 379.405 420.36 380.312 399.25 C377.626 371.844 360.231 356.794 341.525 338.668 C327.654 325.047 318.044 312.253 317.062 292.125 C318.208 265.216 337.619 248.552 355.75 231.154 C369.66 217.529 379.288 203.815 379.812 183.688 C379.148 155.854 358.59 139.225 340.027 121.268 C327.233 108.668 317.943 95.541 317.125 77 C317.891 57.587 327.285 44.824 340.812 31.625 C346.895 25.673 352.791 19.728 358.312 13.25 C368.55 1.935 381.567 -6.915 397.086 -8.121 C417.431 -8.623 430.711 -1.585 445.27 12.223 C449.47 16.402 453.366 20.83 457.312 25.25 C460.012 27.925 462.721 30.591 465.438 33.25 C478.066 45.831 486.494 58.829 487.688 76.938 C486.424 98.203 475.254 110.937 460.617 125.023 C456.623 128.945 452.977 133.023 449.312 137.25 C447.518 138.982 445.724 140.715 443.875 142.5 C432.089 154.221 425.612 167.179 425.062 183.812 C425.307 208.29 439.349 222.452 455.758 238.598 C456.907 239.733 458.055 240.869 459.239 242.038 C461.536 244.303 463.843 246.557 466.161 248.8 C478.585 261.01 486.883 273.987 487.562 291.812 C486.657 318.757 468.158 333.591 450.152 351.195 C435.49 365.697 426.154 378.768 425 400 C426.352 422.72 438.88 437.117 454.562 452.422 C455.666 453.5 456.769 454.577 457.906 455.688 C460.169 457.888 462.44 460.081 464.719 462.266 C478.086 475.383 486.542 488.598 487.812 507.812 C486.267 530.803 472.956 543.782 457.312 559.25 C447.422 569.03 447.422 569.03 446.312 571.25 C445.653 571.25 444.992 571.25 444.312 571.25 C443.653 572.57 442.992 573.89 442.312 575.25 C427.231 587.561 414.148 593.912 394.312 592.25 C372.427 586.568 358.565 570.738 343.318 555.09 C329.248 540.813 315.664 530.947 295.125 529.875 C266.474 531.25 250.219 551.048 231.598 570.268 C219.18 582.87 206.512 591.746 188.375 592.562 C166.197 592.368 152.577 579.726 137.91 564.805 C134.633 561.462 131.363 558.113 128.111 554.746 C114.311 540.723 100.142 530.798 80 529.938 C51.336 531.103 35.207 551.061 16.598 570.268 C4.019 583.034 -9.18 592.238 -27.562 592.625 C-51.815 592.423 -66.558 577.026 -82.562 560.812 C-84.115 559.268 -85.667 557.723 -87.266 556.131 C-100.275 543.049 -111.594 530.297 -113.688 511.25 C-113.381 494.247 -108.226 482.423 -97.688 469.25 C-97.028 469.25 -96.368 469.25 -95.688 469.25 C-95.358 468.59 -95.358 468.59 -93.688 465.25 C-91.642 463.072 -89.534 460.952 -87.395 458.867 C-86.124 457.617 -84.854 456.366 -83.545 455.078 C-80.87 452.464 -78.193 449.852 -75.514 447.242 C-61.438 433.372 -51.449 419.836 -50.312 399.562 C-51.732 371.875 -71.627 354.942 -90.301 336.891 C-103.043 324.375 -112.701 311.224 -113 292.812 C-112.819 270.24 -99.923 256.31 -84.68 241.25 C-81.619 238.241 -78.552 235.24 -75.473 232.25 C-61.495 218.469 -51.376 204.158 -50.375 183.938 C-51.614 157.423 -69.618 142.102 -87.383 124.77 C-101.171 111.145 -112.691 97.523 -113 77.25 C-112.879 59.581 -105.545 47.84 -93.688 35.25 C-92.57 34.031 -91.452 32.811 -90.301 31.555 C-65.698 4.869 -37.253 -21.855 0 0 Z " transform="translate(113.6875,15.75)" fill="#FFFFFF"/>
    <path d="M0 0 C0.66 0 1.32 0 2 0 C9.839 17.398 17.579 34.834 25.211 52.324 C28.64 60.182 32.086 68.031 35.535 75.88 C42.581 91.913 49.614 107.952 56.625 124 C57.366 125.693 58.107 127.385 58.87 129.129 C64 140.884 64 140.884 64 142 C58.39 142 52.78 142 47 142 C31 111.684 31 111.684 31 104 C10.87 104.33 -9.26 104.66 -30 105 C-37.438 122.375 -37.438 122.375 -39.783 127.857 C-40.39 129.273 -40.996 130.689 -41.621 132.148 C-41.933 132.876 -41.933 132.876 -43.51 136.56 C-44.302 138.39 -45.108 140.216 -46 142 C-51.61 142 -57.22 142 -63 142 C-60.717 134.559 -57.642 127.718 -54.312 120.688 C-49.131 109.664 -44.11 98.579 -39.188 87.438 C-33.855 75.377 -28.444 63.357 -22.938 51.375 C-15.107 34.33 -7.525 17.181 0 0 Z M0 35 C-0.277 35.628 -0.277 35.628 -1.681 38.804 C-4.204 44.516 -6.727 50.227 -9.25 55.938 C-10.123 57.913 -10.995 59.888 -11.895 61.924 C-12.739 63.835 -13.583 65.746 -14.453 67.715 C-15.228 69.469 -16.003 71.224 -16.802 73.031 C-18.278 76.368 -19.772 79.697 -21.284 83.018 C-23 87 -23 87 -23 89 C-7.49 89 8.02 89 24 89 C19.503 77.009 14.828 65.295 9.75 53.562 C9.031 51.878 8.311 50.194 7.57 48.459 C6.882 46.865 6.194 45.271 5.484 43.629 C4.863 42.186 4.241 40.743 3.601 39.256 C2 36 2 36 0 35 Z " transform="translate(1725,223)" fill="#FFFFFF"/>
    <path d="M0 0 C16.243 13.418 26.257 27.793 29.75 48.75 C31 69.534 26.555 87.605 12.75 103.75 C-2.133 119.946 -20.921 127.774 -42.688 129 C-64.409 128.024 -80.498 120.773 -96.938 106.562 C-110.992 90.387 -117.181 72.158 -116.25 50.75 C-113.03 31.428 -104.978 15.886 -90.25 2.75 C-62.425 -16.794 -28.745 -19.547 0 0 Z M-88.438 21.938 C-99.206 36.535 -101.348 50.198 -100.25 67.75 C-96.721 83.223 -88.853 94.647 -76.5 104.562 C-62.009 113.36 -47.953 115.804 -31.25 113.75 C-14.715 108.904 -1.788 100.781 7.125 85.812 C15.459 69.576 16.262 54.588 11.062 37.062 C8.555 31.303 5.557 26.738 1.75 21.75 C1.327 21.162 1.327 21.162 -0.812 18.188 C-12.263 6.737 -26.719 1.032 -42.812 0.5 C-62.044 0.675 -75.117 8.617 -88.438 21.938 Z " transform="translate(1050.25,239.25)" fill="#FFFFFF"/>
    <path d="M0 0 C3.18 2.918 3.18 2.918 3.863 7.344 C3.823 8.15 3.823 8.15 3.617 12.23 C3.554 13.856 3.491 15.481 3.426 17.156 C3.385 17.777 3.385 17.777 3.18 20.918 C-1.82 17.918 -1.82 17.918 -5.883 15.043 C-20.436 5.832 -35.368 2.731 -52.383 5.98 C-70.444 12.416 -81.903 21.346 -90.633 38.418 C-96.617 53.464 -95.957 67.636 -90.82 82.918 C-82.159 99.066 -71.135 108.933 -53.82 114.918 C-38.141 118.885 -24.189 116.102 -9.945 108.98 C-4.82 105.918 -4.82 105.918 1.18 100.918 C1.84 100.918 2.5 100.918 3.18 100.918 C3.755 107.018 4.025 112.834 3.18 118.918 C-0.945 122.73 -0.945 122.73 -6.82 124.918 C-9.089 125.825 -11.358 126.733 -13.695 127.668 C-33.842 134.03 -52.745 133.032 -71.82 123.918 C-91.235 113.264 -102.702 99.448 -109.633 78.418 C-113.662 59.757 -111.012 42.598 -102.07 25.73 C-90.135 8.057 -74.711 -3.931 -53.82 -9.082 C-34.608 -11.827 -17.238 -9.395 0 0 Z " transform="translate(1216.8203125,236.08203125)" fill="#FFFFFF"/>
    <path d="M0 0 C0.846 0.351 0.846 0.351 5.125 2.125 C9.946 6.946 9.557 8.73 9.562 15.375 C9.418 18.252 9.244 21.129 9 24 C5 22 5 22 0.5 18.688 C-14.047 8.934 -29.285 5.762 -46.562 9.062 C-65.175 15.695 -76.493 24.985 -85.312 42.625 C-90.945 57.227 -90.269 71.409 -85 86 C-76.887 102.226 -65.029 112.114 -48 118 C-32.321 121.967 -18.368 119.184 -4.125 112.062 C1 109 1 109 7 104 C7.66 104 8.32 104 9 104 C9.576 110.1 9.845 115.917 9 122 C4.875 125.812 4.875 125.812 -1 128 C-3.269 128.908 -5.537 129.815 -7.875 130.75 C-28.359 137.219 -47.415 135.704 -67 127 C-85.558 116.309 -97.027 101.919 -103.812 81.562 C-108.503 59.589 -104.067 40.704 -92 22 C-69.618 -5.648 -32.51 -15.171 0 0 Z " transform="translate(1482,233)" fill="#FFFFFF"/>
    <path d="M0 0 C46.4 0 46.4 0 62 13 C69.092 23.154 70.953 33.564 69.375 45.875 C66.837 53.489 62.304 59.079 57 65 C57.99 65.165 57.99 65.165 63 66 C72.842 72.405 79.072 79.523 82 91 C83.067 103.364 82.099 111.805 75.188 122.25 C67.304 131.524 56.874 135.021 45 137 C30.15 137 15.3 137 0 137 C0 91.79 0 46.58 0 0 Z M15 15 C14.899 18.301 14.869 21.604 14.867 24.906 C14.866 26.929 14.865 28.951 14.863 31.035 C14.867 33.169 14.871 35.302 14.875 37.5 C14.871 39.633 14.867 41.767 14.863 43.965 C14.865 45.987 14.866 48.01 14.867 50.094 C14.868 51.967 14.869 53.841 14.871 55.771 C15 60 15 60 16 61 C27.628 61.415 39.619 61.676 49 54 C51.438 50.312 51.438 50.312 53 47 C53.165 46.67 53.165 46.67 54 45 C54.715 28.7 54.715 28.7 50 22 C44.307 17.256 22.167 7.833 15 15 Z M15 75 C14.899 78.447 14.869 81.896 14.867 85.344 C14.866 87.457 14.865 89.569 14.863 91.746 C14.867 93.975 14.871 96.204 14.875 98.5 C14.871 100.729 14.867 102.958 14.863 105.254 C14.865 107.367 14.866 109.479 14.867 111.656 C14.868 113.614 14.869 115.571 14.871 117.588 C15 122 15 122 16 123 C49.474 124.438 49.474 124.438 62 114 C66.365 107.275 67.513 102.001 67 94 C64.665 86.457 63.257 84.214 57 79 C47.18 74.581 38.887 73.863 28.188 73.875 C25.933 73.872 23.678 73.87 21.355 73.867 C16 74 16 74 15 75 Z " transform="translate(742,228)" fill="#FFFFFF"/>
    <path d="M0 0 C4.95 0 9.9 0 15 0 C15 40.59 15 81.18 15 123 C27.54 123 40.08 123 53 123 C54 124 54 124 54.062 130.562 C54.042 132.687 54.021 134.811 54 137 C45.021 137.029 36.042 137.047 27.062 137.062 C24.495 137.071 21.928 137.079 19.283 137.088 C16.85 137.091 14.417 137.094 11.91 137.098 C10.782 137.1 10.782 137.1 5.071 137.114 C0 137 0 137 -1 136 C-1.101 131.838 -1.128 127.673 -1.129 123.51 C-1.131 122.194 -1.133 120.879 -1.135 119.524 C-1.139 115.151 -1.136 110.779 -1.133 106.406 C-1.133 103.383 -1.134 100.36 -1.136 97.338 C-1.137 90.992 -1.135 84.647 -1.13 78.301 C-1.125 70.146 -1.128 61.991 -1.134 53.836 C-1.138 47.591 -1.136 41.346 -1.134 35.101 C-1.133 32.093 -1.134 29.085 -1.136 26.077 C-1.139 21.881 -1.135 17.686 -1.129 13.49 C-1.129 11.097 -1.128 8.704 -1.127 6.239 C-1 1 -1 1 0 0 Z " transform="translate(860,228)" fill="#FFFFFF"/>
    <path d="M0 0 C4.95 0 9.9 0 15 0 C15.33 19.14 15.66 38.28 16 58 C32.5 41.438 32.5 41.438 37.658 36.252 C39.019 34.889 40.379 33.526 41.781 32.121 C43.164 30.733 44.546 29.346 45.971 27.916 C48.67 25.293 51.441 22.742 54.276 20.268 C58 17 58 17 61.797 12.598 C72.313 0.533 72.313 0.533 80.551 -1.102 C85.477 -1.067 90.137 -0.769 95 0 C92.45 5.101 88.638 8.055 84.453 11.836 C77.428 18.405 70.696 25.263 63.935 32.102 C58.454 37.627 52.904 42.922 47 48 C44.285 50.534 41.597 53.096 38.938 55.688 C37.606 56.97 36.274 58.253 34.902 59.574 C33.945 60.705 32.987 61.835 32 63 C33.378 68.512 36.947 71.121 40.945 74.953 C44.486 78.485 47.717 82.227 51 86 C53.55 88.741 56.113 91.47 58.688 94.188 C64.491 100.332 70.26 106.505 75.977 112.73 C78.207 115.142 80.454 117.538 82.711 119.926 C83.961 121.25 85.212 122.574 86.5 123.938 C87.645 125.143 88.789 126.348 89.969 127.59 C93 131 93 131 97 137 C87.527 138.404 79.353 139.481 71.359 133.566 C67.32 129.2 63.621 124.717 60 120 C59.206 119.123 59.206 119.123 55.188 114.688 C53.806 113.141 52.424 111.594 51 110 C47.337 105.996 43.671 101.996 40 98 C33.294 90.701 26.618 83.378 20 76 C19.34 76.33 19.34 76.33 16 78 C15.67 97.47 15.34 116.94 15 137 C10.05 137 5.1 137 0 137 C0 91.79 0 46.58 0 0 Z " transform="translate(1259,228)" fill="#FFFFFF"/>
    <path d="M0 0 C4.95 0 9.9 0 15 0 C15 18.48 15 36.96 15 56 C38.76 56 62.52 56 87 56 C87 37.52 87 19.04 87 0 C91.95 0 96.9 0 102 0 C102 45.21 102 90.42 102 137 C97.05 137 92.1 137 87 137 C87 114.89 87 92.78 87 70 C63.24 70 39.48 70 15 70 C15 92.11 15 114.22 15 137 C10.05 137 5.1 137 0 137 C-2.325 134.675 -1.128 126.335 -1.129 123.617 C-1.131 122.314 -1.133 121.01 -1.135 119.666 C-1.139 115.331 -1.136 110.996 -1.133 106.66 C-1.133 103.662 -1.134 100.664 -1.136 97.666 C-1.137 91.372 -1.135 85.078 -1.13 78.783 C-1.125 70.698 -1.128 62.612 -1.134 54.527 C-1.138 48.332 -1.136 42.138 -1.134 35.943 C-1.133 32.961 -1.134 29.979 -1.136 26.997 C-1.139 22.835 -1.135 18.674 -1.129 14.512 C-1.129 12.139 -1.128 9.766 -1.127 7.321 C-1 2 -1 2 0 0 Z " transform="translate(1531,228)" fill="#FFFFFF"/>
    <path d="M0 0 C4.95 0 9.9 0 15 0 C15 45.21 15 90.42 15 137 C10.05 137 5.1 137 0 137 C0 91.79 0 46.58 0 0 Z " transform="translate(1817,228)" fill="#FFFFFF"/>
    <path d="M0 0 C1.712 0.743 3.424 1.485 5.188 2.25 C9 6 9 6 9.555 10.164 C9.562 14.48 9.388 18.703 9 23 C4 21 4 21 -0.5 17.688 C-14.177 8.518 -28.809 5.799 -45 8 C-60.024 12.097 -71.773 19.665 -80.875 32.438 C-89.616 47.996 -92.082 62.882 -87.25 80.312 C-81.128 95.786 -71.24 107.669 -56 114.812 C-39.809 120.715 -25.504 120.178 -9.5 113.812 C-3.507 110.748 1.615 107.022 7 103 C7.66 103 8.32 103 9 103 C9.702 109.143 10.015 114.881 9 121 C-4.747 132.711 -24.528 134.981 -42 134 C-62.528 131.019 -78.041 121.196 -92 106 C-103.688 89.23 -108.449 71.035 -105.352 50.754 C-100.931 31.392 -90.428 14.873 -73.672 3.801 C-50.977 -9.721 -23.724 -12.594 0 0 Z " transform="translate(840,452)" fill="#FFFFFF"/>
    <path d="M0 0 C14.859 12.383 25.103 27.628 28 47 C29.236 67.668 24.876 84.156 12.688 100.938 C-1.428 116.182 -19.046 125.996 -40.023 127.238 C-63.812 127.644 -81.374 120.379 -99.062 104.438 C-112.976 89.115 -118.951 70.545 -118 50 C-114.838 29.698 -105.951 12.735 -89.75 -0.188 C-60.988 -19.258 -28.466 -19.86 0 0 Z M-84 14 C-94.734 24.451 -101.229 36.492 -102.336 51.578 C-102.501 71.323 -96.817 84.809 -83 99 C-69.468 110.728 -54.439 113.837 -37 113 C-19.272 109.397 -6.714 101.565 4 87 C12.006 72.323 15.288 57.373 11 41 C4.304 22.772 -5.884 11.785 -23 3 C-44.275 -5.244 -66.699 -0.212 -84 14 Z " transform="translate(998,459)" fill="#FFFFFF"/>
    <path d="M0 0 C0.866 0.361 0.866 0.361 5.25 2.188 C9.943 6.959 9.547 8.838 9.562 15.375 C9.418 18.252 9.244 21.129 9 24 C5.264 21.51 1.534 19.011 -2.188 16.5 C-15.682 8.374 -29.404 5.88 -45 8 C-59.96 12.08 -71.575 19.618 -80.812 32.188 C-89.128 47.351 -91.616 61.072 -88 78 C-81.995 94.986 -72.105 106.869 -56 115 C-36.055 121.648 -20.969 119.259 -2.699 110.133 C1 108 1 108 7 103 C7.66 103 8.32 103 9 103 C9.702 109.143 10.015 114.881 9 121 C-4.747 132.711 -24.528 134.981 -42 134 C-62.528 131.019 -78.041 121.196 -92 106 C-103.747 88.975 -108.474 71.187 -105.352 50.758 C-100.961 31.508 -90.424 14.772 -73.742 3.871 C-50.4 -10.058 -24.738 -11.819 0 0 Z " transform="translate(1928,452)" fill="#FFFFFF"/>
    <path d="M0 0 C20.79 0 41.58 0 63 0 C63 4.62 63 9.24 63 14 C47.16 14 31.32 14 15 14 C15.33 27.2 15.66 40.4 16 54 C31.18 54.33 46.36 54.66 62 55 C62 59.29 62 63.58 62 68 C61 69 61 69 56.664 69.114 C54.742 69.108 52.82 69.103 50.84 69.098 C49.907 69.096 49.907 69.096 45.187 69.09 C42.795 69.081 40.402 69.072 37.938 69.062 C30.368 69.042 22.799 69.021 15 69 C15 91.44 15 113.88 15 137 C10.05 137 5.1 137 0 137 C0 91.79 0 46.58 0 0 Z " transform="translate(1227,447)" fill="#FFFFFF"/>
    <path d="M0 0 C24.09 0 48.18 0 73 0 C73 4.62 73 9.24 73 14 C54.19 14 35.38 14 16 14 C16 27.53 16 41.06 16 55 C34.15 55 52.3 55 71 55 C71 59.62 71 64.24 71 69 C52.85 69 34.7 69 16 69 C16 86.82 16 104.64 16 123 C34.81 123 53.62 123 73 123 C73 127.62 73 132.24 73 137 C62.764 137.025 52.529 137.043 42.293 137.055 C38.808 137.06 35.323 137.067 31.837 137.075 C26.841 137.088 21.844 137.093 16.848 137.098 C16.063 137.1 16.063 137.1 12.091 137.113 C8.394 137.113 4.697 137.062 1 137 C0 136 0 136 -0.12 130.717 C-0.119 129.51 -0.119 129.51 -0.114 123.402 C-0.114 122.075 -0.114 120.749 -0.114 119.382 C-0.113 114.972 -0.105 110.562 -0.098 106.152 C-0.096 103.105 -0.094 100.057 -0.093 97.009 C-0.09 88.968 -0.08 80.928 -0.069 72.887 C-0.057 63.25 -0.052 53.612 -0.046 43.975 C-0.036 29.317 -0.017 14.658 0 0 Z " transform="translate(1327,447)" fill="#FFFFFF"/>
    <path d="M0 0 C48 0 48 0 63 12 C70.167 22.821 71.801 32.152 71 45 C69.088 54.239 65.345 61.094 58.188 67.312 C51.287 71.741 45.221 74.402 37 75 C41.839 82.919 47.154 90.305 52.754 97.688 C57.192 103.583 61.493 109.573 65.797 115.566 C69.823 121.14 73.929 126.653 78.051 132.156 C80 135 80 135 80 137 C73.897 137.587 68.09 137.815 62 137 C57.562 133 57.562 133 54 127 C52.265 124.469 50.513 121.949 48.75 119.438 C48.283 118.751 48.283 118.751 45.922 115.277 C42.017 109.561 38.011 103.92 33.996 98.281 C31.946 95.352 29.94 92.392 27.973 89.406 C27.012 87.952 26.052 86.498 25.062 85 C24.208 83.68 23.353 82.36 22.473 81 C20 78 20 78 15 77 C15 96.8 15 116.6 15 137 C10.05 137 5.1 137 0 137 C0 91.79 0 46.58 0 0 Z M15 14 C15 30.17 15 46.34 15 63 C38.5 63 38.5 63 49 56 C54.886 50.114 55.619 45.101 56 37 C55.159 29.335 53.333 24.624 48 19 C36.485 12.848 29.04 14 15 14 Z " transform="translate(1439,447)" fill="#FFFFFF"/>
    <path d="M0 0 C24.09 0 48.18 0 73 0 C73 4.62 73 9.24 73 14 C54.19 14 35.38 14 16 14 C16 27.53 16 41.06 16 55 C34.15 55 52.3 55 71 55 C71 59.62 71 64.24 71 69 C52.85 69 34.7 69 16 69 C16 86.82 16 104.64 16 123 C34.81 123 53.62 123 73 123 C73 127.62 73 132.24 73 137 C62.764 137.025 52.529 137.043 42.293 137.055 C38.808 137.06 35.323 137.067 31.837 137.075 C26.841 137.088 21.844 137.093 16.848 137.098 C16.063 137.1 16.063 137.1 12.091 137.113 C8.394 137.113 4.697 137.062 1 137 C0 136 0 136 -0.12 130.717 C-0.119 129.51 -0.119 129.51 -0.114 123.402 C-0.114 122.075 -0.114 120.749 -0.114 119.382 C-0.113 114.972 -0.105 110.562 -0.098 106.152 C-0.096 103.105 -0.094 100.057 -0.093 97.009 C-0.09 88.968 -0.08 80.928 -0.069 72.887 C-0.057 63.25 -0.052 53.612 -0.046 43.975 C-0.036 29.317 -0.017 14.658 0 0 Z " transform="translate(1551,447)" fill="#FFFFFF"/>
    <path d="M0 0 C24.09 0 48.18 0 73 0 C73 4.62 73 9.24 73 14 C54.19 14 35.38 14 16 14 C16 27.53 16 41.06 16 55 C34.15 55 52.3 55 71 55 C71 59.62 71 64.24 71 69 C52.85 69 34.7 69 16 69 C16 86.82 16 104.64 16 123 C34.81 123 53.62 123 73 123 C73 127.62 73 132.24 73 137 C48.91 137 24.82 137 0 137 C0 91.79 0 46.58 0 0 Z " transform="translate(1975,447)" fill="#FFFFFF"/>
    <path fill="#FFFFFF" d="
M 1874 228 H 1889 V 365 H 1874 Z
M 1983 228 H 1999 V 365 H 1983 Z
M 1874 223 H 1889 L 1999 347 V 371 H 1984 L 1874 247 Z"/>
    <path fill="#FFFFFF" d="
M 1060 447 H 1075 V 584 H 1060 Z
M 1169 447 H 1185 V 584 H 1169 Z
M 1060 442 H 1075 L 1185 566 V 590 H 1170 L 1060 466 Z"/>
    <path fill="#FFFFFF" d="
M 1664 447 H 1679 V 584 H 1664 Z
M 1773 447 H 1789 V 584 H 1773 Z
M 1664 442 H 1679 L 1789 566 V 590 H 1774 L 1664 466 Z"/>
  </g>
  <g id="orange-elements" shape-rendering="geometricPrecision">
    <path d="M0 0 C4.912 4.133 8.641 7.928 12.125 13.312 C11.125 17.312 11.125 17.312 8.105 19.523 C6.854 20.238 5.602 20.952 4.312 21.688 C3.069 22.417 1.825 23.147 0.543 23.898 C-0.585 24.365 -1.713 24.832 -2.875 25.312 C-6.875 23.312 -6.875 23.312 -10.875 17.312 C-17.854 13.125 -22.799 12.958 -30.875 13.312 C-37.875 16.312 -37.875 16.312 -42.875 21.312 C-45.037 26.719 -45.158 28.752 -43.875 34.312 C-37.01 42.55 -29.155 45.208 -19.438 49.25 C-3.81 55.809 8.178 62.03 15.125 78.312 C17.954 89.628 16.867 101.734 12.125 112.312 C4.162 124.104 -5.097 131.037 -18.938 134.625 C-34.408 136.779 -46.837 133.683 -59.688 124.625 C-67.354 116.657 -73.875 105.741 -73.875 94.312 C-71.148 93.639 -68.418 92.974 -65.688 92.312 C-64.928 92.127 -64.928 92.127 -61.082 91.188 C-56.875 90.312 -56.875 90.312 -51.875 90.312 C-51.442 92.004 -51.009 93.695 -50.562 95.438 C-48.238 103.529 -46.438 106.843 -39.875 112.312 C-32.068 114.915 -25.353 115.555 -17.5 112.75 C-10.604 108.113 -8.17 104.343 -5.875 96.312 C-5.875 88.64 -6.201 85.743 -9.875 79.312 C-16.311 73.693 -23.363 70.692 -31.188 67.375 C-45.28 61.396 -58.21 55.765 -65.25 41.5 C-68.65 30.647 -68.194 22.904 -63.875 12.312 C-47.95 -8.366 -22.656 -14.22 0 0 Z " transform="translate(1574.875,14.6875)" fill="#EC8644"/>
    <path d="M0 0 C4.535 3.887 8.753 7.814 13 12 C13.458 12.446 13.458 12.446 15.778 14.704 C18.946 17.792 22.1 20.893 25.25 24 C26.268 24.996 27.286 25.993 28.335 27.019 C41.826 40.454 52.557 54.38 53.25 74.125 C52.682 92.031 45.448 104.512 33 117 C31.208 118.806 29.416 120.612 27.57 122.473 C22.067 128.002 16.536 133.503 11 139 C10.175 139.825 10.175 139.825 6 144 C-4.549 154.179 -16.748 159.238 -31.312 160.438 C-60.663 158.18 -79.739 135.942 -98 115 C-99.155 113.907 -100.31 112.814 -101.5 111.688 C-111.563 101.085 -116.676 88.573 -117 74 C-115.268 54.597 -106.651 42.244 -93.039 29.008 C-90 26 -90 26 -86.312 21.688 C-85.549 20.801 -84.786 19.914 -84 19 C-83.34 19 -82.68 19 -82 19 C-82 18.34 -82 17.68 -82 17 C-79.357 14.64 -76.685 12.312 -74 10 C-72.742 8.68 -71.484 7.36 -70.188 6 C-49.926 -13.354 -23.238 -14.788 0 0 Z " transform="translate(334,19)" fill="#EC8644"/>
    <path d="M0 0 C7.26 0 14.52 0 22 0 C22.02 2.77 22.04 5.54 22.06 8.394 C22.136 18.676 22.225 28.958 22.317 39.24 C22.356 43.689 22.391 48.138 22.422 52.587 C22.468 58.984 22.526 65.381 22.586 71.777 C22.597 73.765 22.609 75.753 22.621 77.801 C22.641 79.662 22.661 81.524 22.681 83.441 C22.694 85.073 22.708 86.705 22.722 88.387 C23.339 98.619 25.608 105.608 33 113 C41.802 118.868 48.632 119.489 59 119 C66.893 117.338 71.484 113.846 77 108 C81.244 99.405 82.113 91.33 82.205 81.852 C82.225 80.03 82.245 78.209 82.266 76.333 C82.282 74.378 82.299 72.424 82.316 70.41 C82.327 69.405 82.327 69.405 82.379 64.319 C82.445 57.9 82.504 51.482 82.562 45.062 C82.606 40.71 82.649 36.358 82.693 32.006 C82.8 21.337 82.902 10.669 83 0 C89.93 0 96.86 0 104 0 C104.099 13.879 104.172 27.759 104.22 41.638 C104.24 46.358 104.267 51.078 104.302 55.797 C104.35 62.589 104.373 69.38 104.391 76.172 C104.411 78.275 104.432 80.379 104.453 82.546 C104.456 99.39 101.661 112.15 90.375 125.188 C77.709 136.225 63.68 140.767 47 140 C31.413 137.569 20.444 131.875 10 120 C2.162 108.6 -0.132 97.366 -0.114 83.668 C-0.113 81.807 -0.113 79.945 -0.113 78.028 C-0.108 76.029 -0.103 74.031 -0.098 71.973 C-0.096 69.918 -0.095 67.864 -0.093 65.747 C-0.088 59.186 -0.075 52.624 -0.062 46.062 C-0.057 41.614 -0.053 37.165 -0.049 32.717 C-0.038 21.811 -0.021 10.906 0 0 Z " transform="translate(744,10)" fill="#EC8644"/>
    <path d="M0 0 C6.93 0 13.86 0 21 0 C21 45.21 21 90.42 21 137 C14.07 137 7.14 137 0 137 C0 91.79 0 46.58 0 0 Z " transform="translate(1063,10)" fill="#EC8644"/>
    <path d="M0 0 C7.59 0 15.18 0 23 0 C30.189 16.349 37.042 32.798 43.688 49.375 C45.483 53.841 47.278 58.308 49.074 62.773 C49.913 64.859 50.751 66.944 51.615 69.093 C54.705 76.745 57.844 84.375 61 92 C63.808 89.192 64.736 86.13 66.246 82.453 C66.578 81.649 66.578 81.649 68.258 77.577 C68.617 76.698 68.617 76.698 70.438 72.25 C71.179 70.45 71.921 68.649 72.686 66.794 C75.129 60.865 77.565 54.933 80 49 C82.627 42.604 85.256 36.209 87.889 29.815 C89.572 25.726 91.253 21.636 92.929 17.544 C93.694 15.686 94.458 13.828 95.246 11.914 C95.923 10.264 96.601 8.613 97.299 6.913 C99 3 99 3 101 0 C104.869 -0.217 108.75 -0.251 112.625 -0.188 C113.683 -0.174 113.683 -0.174 119.039 -0.105 C119.858 -0.088 119.858 -0.088 124 0 C119.972 10.977 115.63 21.73 110.938 32.438 C109.516 35.703 108.096 38.968 106.676 42.234 C105.921 43.969 105.167 45.703 104.389 47.49 C100.103 57.376 95.865 67.282 91.625 77.188 C91.186 78.212 91.186 78.212 88.966 83.396 C86.31 89.597 83.655 95.799 81 102 C78.39 108.096 75.78 114.192 73.169 120.288 C71.586 123.986 70.003 127.684 68.42 131.382 C67.72 133.018 67.019 134.654 66.297 136.34 C65.989 137.058 65.989 137.058 64.433 140.695 C63.659 142.48 62.87 144.26 62 146 C61.34 146 60.68 146 60 146 C50.857 124.877 42.009 103.637 33.219 82.365 C30.304 75.318 27.381 68.275 24.458 61.231 C21.655 54.477 18.856 47.721 16.058 40.965 C14.672 37.621 13.284 34.277 11.896 30.934 C9.906 26.145 7.921 21.354 5.938 16.562 C5.636 15.839 5.636 15.839 4.113 12.178 C0 2.228 0 2.228 0 0 Z " transform="translate(1114,10)" fill="#EC8644"/>
    <path d="M0 0 C25.74 0 51.48 0 78 0 C78 6.27 78 12.54 78 19 C77 20 77 20 71.838 20.114 C69.539 20.108 67.24 20.103 64.871 20.098 C62.393 20.094 59.915 20.091 57.361 20.088 C56.054 20.084 56.054 20.084 49.438 20.062 C46.819 20.058 44.2 20.053 41.502 20.049 C35.001 20.037 28.501 20.019 22 20 C22 30.56 22 41.12 22 52 C39.82 52 57.64 52 76 52 C76 58.6 76 65.2 76 72 C58.18 72 40.36 72 22 72 C22 87.18 22 102.36 22 118 C40.48 118 58.96 118 78 118 C78 124.27 78 130.54 78 137 C52.26 137 26.52 137 0 137 C0 91.79 0 46.58 0 0 Z " transform="translate(1267,10)" fill="#EC8644"/>
    <path d="M0 0 C52.738 0 52.738 0 67.375 11.062 C76.758 21.08 79.37 30.448 79.285 43.871 C78.536 54.721 73.547 62.453 66 70 C56 78 56 78 49 78 C52.062 83.73 55.718 88.662 59.75 93.75 C64.98 100.406 70.057 107.127 75 114 C78.671 118.949 82.345 123.897 86.023 128.84 C89 133 89 133 91 137 C68.311 139.424 68.311 139.424 61.094 134.141 C58.006 129.916 55.511 125.591 53 121 C50.722 117.685 48.408 114.393 46.062 111.125 C45.482 110.292 45.482 110.292 42.543 106.078 C39 101.001 35.455 95.926 31.875 90.875 C31.358 90.142 31.358 90.142 28.742 86.43 C26 83 26 83 22 81 C22 99.48 22 117.96 22 137 C14.74 137 7.48 137 0 137 C0 91.79 0 46.58 0 0 Z M22 20 C22 34.19 22 48.38 22 63 C43.054 63 43.054 63 51 57 C56.337 51.465 57.853 48.461 58.312 40.75 C57.99 34.813 57.287 31.888 54 27 C44.098 18.406 35.392 20 22 20 Z " transform="translate(1384,10)" fill="#EC8644"/>
    <path d="M0 0 C6.93 0 13.86 0 21 0 C21 45.21 21 90.42 21 137 C14.07 137 7.14 137 0 137 C0 91.79 0 46.58 0 0 Z " transform="translate(1629,10)" fill="#EC8644"/>
    <path d="M0 0 C28.38 0 56.76 0 86 0 C86 6.27 86 12.54 86 19 C85.835 19.165 85.835 19.165 85 20 C74.44 20 63.88 20 53 20 C53 58.61 53 97.22 53 137 C46.07 137 39.14 137 32 137 C32 98.39 32 59.78 32 20 C21.44 20 10.88 20 0 20 C0 13.4 0 6.8 0 0 Z " transform="translate(1681,10)" fill="#EC8644"/>
    <path d="M0 0 C8.25 0 16.5 0 25 0 C26.004 1.766 27.008 3.532 28.043 5.352 C50.363 44.544 50.363 44.544 56 53 C60.147 46.91 63.948 40.732 67.562 34.312 C85.744 2.256 85.744 2.256 88 0 C92.02 -0.073 96.042 -0.084 100.062 -0.062 C102.281 -0.053 104.499 -0.044 106.785 -0.035 C108.506 -0.024 110.227 -0.012 112 0 C110.016 5.952 107.269 10.703 104.012 16.031 C100.19 22.336 96.47 28.698 92.75 35.062 C76.331 63.114 76.331 63.114 68 77 C67.678 81.53 67.536 86.073 67.488 90.613 C67.479 91.276 67.479 91.276 67.434 94.627 C67.38 98.856 67.346 103.084 67.312 107.312 C67.279 110.18 67.245 113.048 67.209 115.916 C67.124 122.944 67.057 129.972 67 137 C63.521 137.027 60.042 137.046 56.562 137.062 C55.594 137.068 55.594 137.068 50.691 137.098 C46 137 46 137 45 136 C45.001 131.85 45.06 127.7 45.141 123.551 C45.166 119.533 45.192 115.516 45.211 111.498 C45.237 108.745 45.283 105.992 45.353 103.24 C45.838 82.923 42.836 70.463 31 54 C29.457 51.447 27.942 48.876 26.469 46.281 C25.159 44.043 23.849 41.806 22.5 39.5 C21.793 38.292 21.086 37.083 20.357 35.838 C14.73 26.228 9.051 16.649 3.344 7.086 C1 3 1 3 0 0 Z " transform="translate(1789,10)" fill="#EC8644"/>
    <path d="M0 0 C9.004 7.643 17.311 16.058 25.688 24.375 C26.375 25.048 26.375 25.048 29.854 28.453 C43.64 42.152 53.351 55.456 54.375 75.25 C53.377 95.878 42.879 108.928 29 123 C28.04 123.99 27.08 124.979 26.091 125.999 C22.845 129.345 19.581 132.675 16.312 136 C15.79 136.537 15.79 136.537 13.147 139.257 C0.934 151.558 -12.286 160.003 -30 160.312 C-55.444 160.117 -70.372 142.812 -87.188 126.062 C-88.515 124.756 -89.842 123.45 -91.209 122.104 C-105.202 108.167 -114.896 95.309 -116 75 C-115.415 49.838 -97.038 34.004 -80.562 17.312 C-79.61 16.338 -78.657 15.364 -77.676 14.361 C-55.657 -7.758 -28.079 -18.355 0 0 Z " transform="translate(333,233)" fill="#EC8644"/>
    <path fill="#EC8644" d="
M 894 10 H 915 V 147 H 894 Z
M 996 10 H 1018 V 147 H 996 Z
M 894 1 H 915 L 1018 123 V 155 H 997 L 894 32 Z"/>
  </g>
</svg>
